<svg width="30" height="30" viewBox="0 0 30 30" xmlns="http://www.w3.org/2000/svg">
        <style>
          :root { color: #171717 }
          @media (prefers-color-scheme: dark) {
            :root { color: #ededed }
          }
        </style>
        <g fill="none" stroke="currentColor">
<path d="M21.875 8.125H21.8875M8.75 2.5H21.25C24.7018 2.5 27.5 5.29822 27.5 8.75V21.25C27.5 24.7018 24.7018 27.5 21.25 27.5H8.75C5.29822 27.5 2.5 24.7018 2.5 21.25V8.75C2.5 5.29822 5.29822 2.5 8.75 2.5ZM20 14.2125C20.1543 15.2528 19.9766 16.3153 19.4922 17.2488C19.0078 18.1823 18.2414 18.9393 17.302 19.4121C16.3626 19.8849 15.2981 20.0495 14.2597 19.8824C13.2214 19.7153 12.2622 19.2251 11.5185 18.4815C10.7749 17.7378 10.2847 16.7786 10.1176 15.7403C9.9505 14.7019 10.1151 13.6374 10.5879 12.698C11.0607 11.7586 11.8177 10.9922 12.7512 10.5078C13.6847 10.0234 14.7472 9.84574 15.7875 10C16.8487 10.1574 17.8311 10.6518 18.5896 11.4104C19.3482 12.1689 19.8426 13.1513 20 14.2125Z" stroke="currentColor" stroke-width="2" stroke-linecap="round" stroke-linejoin="round"/>
</g>
</svg>
