<?xml version="1.0" standalone="no"?>
<!DOCTYPE svg PUBLIC "-//W3C//DTD SVG 20010904//EN"
 "http://www.w3.org/TR/2001/REC-SVG-20010904/DTD/svg10.dtd">
<svg version="1.0" xmlns="http://www.w3.org/2000/svg"
 width="546.000000pt" height="802.000000pt" viewBox="0 0 546.000000 802.000000"
 preserveAspectRatio="xMidYMid meet">

<g transform="translate(0.000000,802.000000) scale(0.100000,-0.100000)"
fill="#fff" stroke="none">
<path d="M2205 7994 c-186 -34 -388 -122 -554 -242 -164 -117 -347 -314 -460
-494 -34 -53 -59 -79 -124 -124 -267 -188 -502 -505 -642 -869 -287 -743 -267
-1882 50 -2864 l54 -165 -55 -58 c-216 -234 -373 -534 -434 -832 -110 -536 27
-1079 386 -1522 351 -434 930 -739 1544 -814 126 -15 421 -12 557 5 532 70
1011 312 1438 725 66 64 152 136 190 160 261 161 544 422 742 685 484 644 666
1430 497 2145 -146 619 -538 1182 -1065 1530 -122 81 -311 181 -417 221 l-63
24 6 35 c3 19 9 124 14 233 44 954 -223 1678 -752 2036 -104 71 -243 131 -397
173 -102 27 -397 34 -515 12z m465 -274 c439 -113 761 -521 880 -1118 48 -245
55 -323 55 -664 0 -174 -2 -319 -5 -322 -3 -3 -75 -1 -159 5 -433 27 -948 -58
-1296 -213 -187 -84 -277 -152 -290 -222 -14 -74 57 -166 129 -166 18 0 73 26
146 70 427 256 882 341 1329 250 203 -41 365 -99 539 -191 648 -344 1099
-1007 1183 -1738 15 -132 7 -432 -16 -561 -41 -243 -106 -444 -219 -675 -369
-753 -1046 -1266 -1821 -1380 -127 -19 -411 -22 -525 -5 -811 114 -1466 606
-1685 1263 -165 496 -84 1010 227 1428 350 473 1027 804 1535 750 151 -16 262
-44 371 -96 122 -58 200 -114 291 -211 88 -93 103 -103 154 -104 53 0 101 25
130 68 60 88 50 130 -51 231 -492 491 -1466 474 -2182 -38 -46 -33 -88 -57
-92 -53 -9 10 -92 304 -118 422 -92 415 -125 713 -125 1140 0 320 6 403 46
650 117 715 461 1232 959 1437 64 26 139 47 250 67 62 11 278 -3 360 -24z"/>
</g>
</svg>
